<svg width="32" height="36" viewBox="0 0 32 36" fill="none" xmlns="http://www.w3.org/2000/svg">
<g filter="url(#filter0_d_74_35569)">
<path d="M20.1101 16.0231L4.31143 8.68223C4.03193 8.55241 3.70585 8.57476 3.44646 8.74163C3.18706 8.90856 3.03016 9.19692 3.03016 9.50667L3 30.0918C3 30.5934 3.4042 31 3.90278 31C4.40135 31 4.80556 30.5934 4.80556 30.0918V24.7835L20.1101 17.6722C20.4296 17.5237 20.6343 17.2018 20.6343 16.8476C20.6343 16.4935 20.4296 16.1716 20.1101 16.0231Z" fill="white"/>
<path d="M29 0.908163C29 0.598406 28.8431 0.310016 28.5836 0.143089C28.3242 -0.0237773 27.9982 -0.0461838 27.7187 0.0836887L11.92 7.42455C11.6004 7.57307 11.3958 7.89491 11.3958 8.24905C11.3958 8.60319 11.6004 8.92506 11.92 9.07358L27.1944 16.1709V30.0916C27.1944 30.5932 27.5986 30.9998 28.0972 30.9998C28.5957 30.9998 28.9999 30.5932 28.9999 30.0916L29 0.908163Z" fill="white"/>
</g>
<defs>
<filter id="filter0_d_74_35569" x="0.720742" y="0" width="30.5585" height="35.5585" filterUnits="userSpaceOnUse" color-interpolation-filters="sRGB">
<feFlood flood-opacity="0" result="BackgroundImageFix"/>
<feColorMatrix in="SourceAlpha" type="matrix" values="0 0 0 0 0 0 0 0 0 0 0 0 0 0 0 0 0 0 127 0" result="hardAlpha"/>
<feOffset dy="2.27926"/>
<feGaussianBlur stdDeviation="1.13963"/>
<feColorMatrix type="matrix" values="0 0 0 0 0 0 0 0 0 0 0 0 0 0 0 0 0 0 0.25 0"/>
<feBlend mode="normal" in2="BackgroundImageFix" result="effect1_dropShadow_74_35569"/>
<feBlend mode="normal" in="SourceGraphic" in2="effect1_dropShadow_74_35569" result="shape"/>
</filter>
</defs>
</svg>
